<?xml version="1.0" standalone="no"?>
<!DOCTYPE svg PUBLIC "-//W3C//DTD SVG 20010904//EN"
 "http://www.w3.org/TR/2001/REC-SVG-20010904/DTD/svg10.dtd">
<svg version="1.0" xmlns="http://www.w3.org/2000/svg"
 width="512.000000pt" height="512.000000pt" viewBox="0 0 512.000000 512.000000"
 preserveAspectRatio="xMidYMid meet">
<metadata>
Created by potrace 1.11, written by Peter Selinger 2001-2013
</metadata>
<g transform="translate(0.000000,512.000000) scale(0.100000,-0.100000)"
fill="#000000" stroke="none">
<path d="M2720 5109 c-181 -23 -256 -38 -405 -81 -629 -180 -1084 -604 -1328
-1238 -60 -156 -121 -412 -144 -603 -10 -82 -10 -393 0 -484 62 -574 327
-1045 762 -1358 192 -138 524 -274 760 -310 154 -23 290 -35 410 -37 92 0 85
41 85 -471 0 -249 3 -462 6 -475 14 -52 113 -69 161 -28 l28 24 1 466 c1 326
5 470 13 480 6 7 43 16 84 20 141 13 262 41 405 92 l92 34 0 -43 c1 -23 1
-118 1 -211 0 -164 1 -169 24 -192 31 -31 87 -32 115 -4 24 24 22 -4 24 290 2
239 8 290 36 290 18 0 177 169 226 241 90 131 204 378 191 413 -8 21 -69 37
-83 22 -6 -6 -44 -74 -84 -151 -40 -77 -88 -164 -107 -193 -42 -67 -158 -191
-170 -183 -5 3 -8 173 -8 376 1 361 -3 427 -24 448 -5 5 -31 10 -56 11 -38 1
-49 -3 -65 -23 -17 -23 -18 -53 -19 -470 0 -516 13 -462 -119 -505 -118 -39
-216 -57 -339 -61 -89 -3 -114 -1 -124 11 -9 11 -12 98 -12 334 0 386 1 384
-100 394 -25 3 -43 -3 -63 -19 l-29 -23 -3 -320 c-2 -252 -6 -323 -16 -331
-27 -22 -253 71 -385 159 -351 233 -624 651 -745 1141 -32 131 -42 185 -61
349 -6 50 -6 348 -1 395 2 17 7 59 11 95 20 205 85 469 170 695 121 322 263
537 455 693 25 21 52 44 62 52 30 28 155 98 226 128 163 70 370 86 535 41 116
-31 225 -115 279 -215 15 -27 52 -120 82 -207 99 -283 177 -406 301 -469 83
-43 210 -53 296 -22 81 29 192 148 203 218 1 6 4 16 7 21 13 22 6 148 -10 203
-49 161 -153 274 -362 395 -156 89 -375 161 -559 182 -30 4 -82 10 -114 14
-73 10 -441 10 -516 0z"/>
</g>
</svg>
